<svg width="12" height="13" viewBox="0 0 12 13" fill="none" xmlns="http://www.w3.org/2000/svg">
<path d="M6.84914 1.64286C6.814 1.32857 6.66426 1.03825 6.42855 0.827412C6.19283 0.616575 5.88768 0.50001 5.57143 0.5H3.57143C3.25518 0.50001 2.95003 0.616575 2.71431 0.827412C2.47859 1.03825 2.32885 1.32857 2.29371 1.64286H1.28571C0.944722 1.64286 0.617695 1.77832 0.376577 2.01943C0.135459 2.26055 0 2.58758 0 2.92857V10.6429C0 10.9838 0.135459 11.3109 0.376577 11.552C0.617695 11.7931 0.944722 11.9286 1.28571 11.9286H6.17714C5.93216 11.6735 5.72474 11.3849 5.56114 11.0714H1.28571C1.17205 11.0714 1.06304 11.0263 0.982668 10.9459C0.902296 10.8655 0.857143 10.7565 0.857143 10.6429V2.92857C0.857143 2.81491 0.902296 2.7059 0.982668 2.62553C1.06304 2.54515 1.17205 2.5 1.28571 2.5H2.50229C2.73314 2.84457 3.12571 3.07143 3.57143 3.07143H5.57143C6.01714 3.07143 6.40971 2.84457 6.64057 2.5H7.85714C7.97081 2.5 8.07982 2.54515 8.16019 2.62553C8.24056 2.7059 8.28571 2.81491 8.28571 2.92857V5.68629C8.56924 5.64264 8.85684 5.63171 9.14286 5.65371V2.92857C9.14286 2.58758 9.0074 2.26055 8.76628 2.01943C8.52516 1.77832 8.19814 1.64286 7.85714 1.64286H6.84914ZM6.85429 1.69771L6.85714 1.78571C6.85714 1.756 6.856 1.72686 6.85429 1.69771ZM3.57143 1.35714H5.57143C5.68509 1.35714 5.7941 1.4023 5.87447 1.48267C5.95485 1.56304 6 1.67205 6 1.78571C6 1.89938 5.95485 2.00839 5.87447 2.08876C5.7941 2.16913 5.68509 2.21429 5.57143 2.21429H3.57143C3.45776 2.21429 3.34876 2.16913 3.26838 2.08876C3.18801 2.00839 3.14286 1.89938 3.14286 1.78571C3.14286 1.67205 3.18801 1.56304 3.26838 1.48267C3.34876 1.4023 3.45776 1.35714 3.57143 1.35714ZM5.68971 7.41657C5.99667 6.91697 6.41697 6.49667 6.91657 6.18971L7.44571 5.66C7.48782 5.62076 7.52159 5.57345 7.54502 5.52088C7.56844 5.46831 7.58104 5.41156 7.58205 5.35401C7.58307 5.29647 7.57248 5.23931 7.55093 5.18594C7.52937 5.13258 7.49729 5.0841 7.45659 5.04341C7.4159 5.00271 7.36742 4.97063 7.31406 4.94907C7.26069 4.92752 7.20353 4.91693 7.14599 4.91795C7.08844 4.91896 7.03169 4.93156 6.97912 4.95498C6.92655 4.97841 6.87924 5.01218 6.84 5.05429L4 7.89429L2.87429 6.76857C2.79304 6.69287 2.68559 6.65166 2.57456 6.65361C2.46353 6.65557 2.35759 6.70055 2.27907 6.77907C2.20055 6.8576 2.15557 6.96353 2.15361 7.07456C2.15166 7.18559 2.19287 7.29304 2.26857 7.37429L3.69714 8.80286C3.7775 8.88312 3.88643 8.92819 4 8.92819C4.11357 8.92819 4.2225 8.88312 4.30286 8.80286L5.68971 7.41657ZM12 9.35714C12 8.52361 11.6689 7.72421 11.0795 7.13481C10.4901 6.54541 9.69068 6.21429 8.85714 6.21429C8.02361 6.21429 7.22421 6.54541 6.63481 7.13481C6.04541 7.72421 5.71429 8.52361 5.71429 9.35714C5.71429 10.1907 6.04541 10.9901 6.63481 11.5795C7.22421 12.1689 8.02361 12.5 8.85714 12.5C9.69068 12.5 10.4901 12.1689 11.0795 11.5795C11.6689 10.9901 12 10.1907 12 9.35714ZM9.14286 9.64286L9.14343 11.0731C9.14343 11.1489 9.11333 11.2216 9.05974 11.2752C9.00616 11.3288 8.93349 11.3589 8.85771 11.3589C8.78194 11.3589 8.70926 11.3288 8.65568 11.2752C8.6021 11.2216 8.572 11.1489 8.572 11.0731V9.64286H7.14057C7.0648 9.64286 6.99212 9.61275 6.93854 9.55917C6.88496 9.50559 6.85486 9.43292 6.85486 9.35714C6.85486 9.28137 6.88496 9.20869 6.93854 9.15511C6.99212 9.10153 7.0648 9.07143 7.14057 9.07143H8.57143V7.64286C8.57143 7.56708 8.60153 7.49441 8.65511 7.44083C8.70869 7.38724 8.78137 7.35714 8.85714 7.35714C8.93292 7.35714 9.00559 7.38724 9.05917 7.44083C9.11275 7.49441 9.14286 7.56708 9.14286 7.64286V9.07143H10.5697C10.6455 9.07143 10.7182 9.10153 10.7717 9.15511C10.8253 9.20869 10.8554 9.28137 10.8554 9.35714C10.8554 9.43292 10.8253 9.50559 10.7717 9.55917C10.7182 9.61275 10.6455 9.64286 10.5697 9.64286H9.14286Z" fill="#4A5974"/>
</svg>
