<svg width="30" height="30" viewBox="0 0 30 30" fill="none" xmlns="http://www.w3.org/2000/svg">
<g clip-path="url(#clip0_877_54323)">
<path d="M26.2252 3.2C25.4243 2.40835 24.3713 1.92234 23.2493 1.82642C22.1273 1.73051 21.0071 2.03077 20.0835 2.675C23.0525 3.91114 25.4779 6.17385 26.9168 9.05C27.4723 8.13798 27.706 7.0661 27.5806 6.00564C27.4552 4.94518 26.978 3.95735 26.2252 3.2Z" fill="#F8F8F8"/>
<path d="M9.51659 2.85833C8.59679 2.12781 7.4414 1.75925 6.26848 1.82219C5.09557 1.88513 3.98626 2.37524 3.14992 3.2C2.32049 4.03492 1.82925 5.14718 1.77078 6.32261C1.71232 7.49805 2.09076 8.65356 2.83325 9.56667C4.17036 6.59169 6.54663 4.20654 9.51659 2.85833Z" fill="#F8F8F8"/>
<path d="M15 3.33333C12.6966 3.33809 10.4461 4.0246 8.53218 5.30636C6.61829 6.58811 5.12665 8.40773 4.24527 10.5359C3.36389 12.664 3.13221 15.0055 3.57943 17.2651C4.02664 19.5247 5.13275 21.6014 6.75833 23.2333L4.63333 25.3583C4.55617 25.4371 4.4953 25.5303 4.45417 25.6327C4.41305 25.735 4.39248 25.8444 4.39364 25.9547C4.3948 26.0649 4.41767 26.1739 4.46094 26.2753C4.50421 26.3768 4.56703 26.4687 4.64583 26.5458C4.72462 26.623 4.81784 26.6839 4.92016 26.725C5.02248 26.7661 5.13189 26.7867 5.24216 26.7855C5.35243 26.7844 5.46139 26.7615 5.56283 26.7182C5.66426 26.6749 5.75617 26.6121 5.83333 26.5333L8.04999 24.3167C10.0771 25.8506 12.5525 26.6752 15.0946 26.6631C17.6367 26.6511 20.1042 25.8031 22.1167 24.25L24.4 26.5333C24.5594 26.6699 24.7645 26.7412 24.9742 26.7331C25.1839 26.725 25.3829 26.638 25.5313 26.4896C25.6797 26.3412 25.7666 26.1423 25.7748 25.9325C25.7829 25.7228 25.7115 25.5177 25.575 25.3583L23.3333 23.15C24.936 21.5083 26.0192 19.4306 26.4472 17.1766C26.8752 14.9226 26.6292 12.5924 25.7398 10.4775C24.8505 8.36261 23.3573 6.55689 21.447 5.28618C19.5368 4.01548 17.2943 3.3362 15 3.33333ZM21.225 17.8583C21.1295 18.0568 20.9593 18.2095 20.7516 18.2829C20.544 18.3563 20.3157 18.3444 20.1167 18.25L14.1667 15.3667V8.07499C14.1667 7.85398 14.2545 7.64202 14.4107 7.48574C14.567 7.32946 14.779 7.24166 15 7.24166C15.221 7.24166 15.433 7.32946 15.5892 7.48574C15.7455 7.64202 15.8333 7.85398 15.8333 8.07499V14.325L20.8333 16.75C20.9331 16.7958 21.0228 16.8608 21.0974 16.9413C21.1719 17.0219 21.2298 17.1163 21.2678 17.2193C21.3057 17.3223 21.3229 17.4318 21.3185 17.5414C21.314 17.6511 21.2879 17.7588 21.2417 17.8583H21.225Z" fill="#F8F8F8"/>
</g>
<defs>
<clipPath id="clip0_877_54323">
<rect width="30" height="30" fill="white"/>
</clipPath>
</defs>
</svg>
