<svg width="13" height="11" viewBox="0 0 13 11" fill="none" xmlns="http://www.w3.org/2000/svg">
<path d="M4.58556 10.2426L1.75714 7.41421C1.00699 6.66407 0.585565 5.64665 0.585565 4.58578C0.585565 3.52492 1.00699 2.5075 1.75714 1.75736C2.50728 1.00721 3.5247 0.585785 4.58557 0.585785C5.64643 0.585785 6.66385 1.00721 7.41399 1.75736L11.1852 5.52859C11.6853 6.02869 11.9663 6.70697 11.9663 7.41421C11.9663 8.12146 11.6853 8.79973 11.1852 9.29983C10.6851 9.79993 10.0069 10.0809 9.29961 10.0809C8.59237 10.0809 7.91409 9.79993 7.41399 9.29983L3.64276 5.52859C3.39271 5.27855 3.25223 4.93941 3.25223 4.58578C3.25223 4.23216 3.39271 3.89302 3.64276 3.64298C3.8928 3.39293 4.23194 3.25245 4.58556 3.25245C4.93919 3.25245 5.27833 3.39293 5.52837 3.64298L9.29961 7.41421" stroke="black" stroke-linecap="round" stroke-linejoin="round"/>
</svg>
