<svg width="12" height="14" viewBox="0 0 12 14" fill="none" xmlns="http://www.w3.org/2000/svg">
<path d="M6 13.6667C6.41287 13.6672 6.81564 13.5391 7.15233 13.3001C7.48902 13.0611 7.74289 12.7232 7.87867 12.3333H4.12133C4.25711 12.7232 4.51099 13.0611 4.84767 13.3001C5.18436 13.5391 5.58713 13.6672 6 13.6667ZM10.6667 8.724V5.66666C10.6667 3.522 9.21 1.71533 7.23667 1.17199C7.04133 0.679995 6.564 0.333328 6 0.333328C5.436 0.333328 4.95867 0.679995 4.76333 1.17199C2.79 1.71599 1.33333 3.522 1.33333 5.66666V8.724L0.195334 9.86199C0.133306 9.9238 0.0841138 9.99726 0.0505903 10.0782C0.0170668 10.159 -0.000126299 10.2458 6.98449e-07 10.3333V11C6.98449e-07 11.1768 0.0702386 11.3464 0.195263 11.4714C0.320287 11.5964 0.489856 11.6667 0.666667 11.6667H11.3333C11.5101 11.6667 11.6797 11.5964 11.8047 11.4714C11.9298 11.3464 12 11.1768 12 11V10.3333C12.0001 10.2458 11.9829 10.159 11.9494 10.0782C11.9159 9.99726 11.8667 9.9238 11.8047 9.86199L10.6667 8.724Z" fill="black"/>
</svg>
