<svg width="14" height="14" viewBox="0 0 14 14" fill="none" xmlns="http://www.w3.org/2000/svg">
<path d="M0 2.38636C0 1.75346 0.25142 1.14648 0.69895 0.69895C1.14648 0.25142 1.75346 0 2.38636 0H11.6136C12.2465 0 12.8535 0.25142 13.3011 0.69895C13.7486 1.14648 14 1.75346 14 2.38636V11.6136C14 12.2465 13.7486 12.8535 13.3011 13.3011C12.8535 13.7486 12.2465 14 11.6136 14H2.38636C1.75346 14 1.14648 13.7486 0.69895 13.3011C0.25142 12.8535 0 12.2465 0 11.6136V2.38636ZM0.954545 7.31818V11.6136C0.954545 11.9934 1.1054 12.3576 1.37392 12.6261C1.64243 12.8946 2.00662 13.0455 2.38636 13.0455H8.27273V7.31818H0.954545ZM8.27273 6.36364V0.954545H2.38636C2.00662 0.954545 1.64243 1.1054 1.37392 1.37392C1.1054 1.64243 0.954545 2.00662 0.954545 2.38636V6.36364H8.27273ZM11.6136 13.0455C11.9934 13.0455 12.3576 12.8946 12.6261 12.6261C12.8946 12.3576 13.0455 11.9934 13.0455 11.6136V9.54545H9.22727V13.0455H11.6136ZM13.0455 8.59091V5.40909H9.22727V8.59091H13.0455ZM9.22727 0.954545V4.45455H13.0455V2.38636C13.0455 2.00662 12.8946 1.64243 12.6261 1.37392C12.3576 1.1054 11.9934 0.954545 11.6136 0.954545H9.22727Z" fill="#4A5974"/>
</svg>
