<svg width="16" height="16" viewBox="0 0 16 16" fill="none" xmlns="http://www.w3.org/2000/svg">
<path d="M5.1669 1.66669C5.1669 1.53408 5.11422 1.4069 5.02045 1.31313C4.92668 1.21937 4.79951 1.16669 4.6669 1.16669C4.53429 1.16669 4.40711 1.21937 4.31334 1.31313C4.21958 1.4069 4.1669 1.53408 4.1669 1.66669V2.72002C3.2069 2.79669 2.57756 2.98469 2.1149 3.44802C1.65156 3.91069 1.46356 4.54069 1.38623 5.50002H14.6142C14.5369 4.54002 14.3489 3.91069 13.8856 3.44802C13.4229 2.98469 12.7929 2.79669 11.8336 2.71935V1.66669C11.8336 1.53408 11.7809 1.4069 11.6871 1.31313C11.5933 1.21937 11.4662 1.16669 11.3336 1.16669C11.201 1.16669 11.0738 1.21937 10.98 1.31313C10.8862 1.4069 10.8336 1.53408 10.8336 1.66669V2.67535C10.3902 2.66669 9.8929 2.66669 9.33356 2.66669H6.6669C6.10756 2.66669 5.61023 2.66669 5.1669 2.67535V1.66669Z" fill="black"/>
<path fill-rule="evenodd" clip-rule="evenodd" d="M1.3335 8C1.3335 7.44067 1.3335 6.94333 1.34216 6.5H14.6582C14.6668 6.94333 14.6668 7.44067 14.6668 8V9.33333C14.6668 11.8473 14.6668 13.1047 13.8855 13.8853C13.1048 14.6667 11.8475 14.6667 9.3335 14.6667H6.66683C4.15283 14.6667 2.8955 14.6667 2.11483 13.8853C1.3335 13.1047 1.3335 11.8473 1.3335 9.33333V8ZM11.3335 9.33333C11.5103 9.33333 11.6799 9.2631 11.8049 9.13807C11.9299 9.01305 12.0002 8.84348 12.0002 8.66667C12.0002 8.48986 11.9299 8.32029 11.8049 8.19526C11.6799 8.07024 11.5103 8 11.3335 8C11.1567 8 10.9871 8.07024 10.8621 8.19526C10.7371 8.32029 10.6668 8.48986 10.6668 8.66667C10.6668 8.84348 10.7371 9.01305 10.8621 9.13807C10.9871 9.2631 11.1567 9.33333 11.3335 9.33333ZM11.3335 12C11.5103 12 11.6799 11.9298 11.8049 11.8047C11.9299 11.6797 12.0002 11.5101 12.0002 11.3333C12.0002 11.1565 11.9299 10.987 11.8049 10.8619C11.6799 10.7369 11.5103 10.6667 11.3335 10.6667C11.1567 10.6667 10.9871 10.7369 10.8621 10.8619C10.7371 10.987 10.6668 11.1565 10.6668 11.3333C10.6668 11.5101 10.7371 11.6797 10.8621 11.8047C10.9871 11.9298 11.1567 12 11.3335 12ZM8.66683 8.66667C8.66683 8.84348 8.59659 9.01305 8.47157 9.13807C8.34654 9.2631 8.17697 9.33333 8.00016 9.33333C7.82335 9.33333 7.65378 9.2631 7.52876 9.13807C7.40373 9.01305 7.3335 8.84348 7.3335 8.66667C7.3335 8.48986 7.40373 8.32029 7.52876 8.19526C7.65378 8.07024 7.82335 8 8.00016 8C8.17697 8 8.34654 8.07024 8.47157 8.19526C8.59659 8.32029 8.66683 8.48986 8.66683 8.66667ZM8.66683 11.3333C8.66683 11.5101 8.59659 11.6797 8.47157 11.8047C8.34654 11.9298 8.17697 12 8.00016 12C7.82335 12 7.65378 11.9298 7.52876 11.8047C7.40373 11.6797 7.3335 11.5101 7.3335 11.3333C7.3335 11.1565 7.40373 10.987 7.52876 10.8619C7.65378 10.7369 7.82335 10.6667 8.00016 10.6667C8.17697 10.6667 8.34654 10.7369 8.47157 10.8619C8.59659 10.987 8.66683 11.1565 8.66683 11.3333ZM4.66683 9.33333C4.84364 9.33333 5.01321 9.2631 5.13823 9.13807C5.26326 9.01305 5.3335 8.84348 5.3335 8.66667C5.3335 8.48986 5.26326 8.32029 5.13823 8.19526C5.01321 8.07024 4.84364 8 4.66683 8C4.49002 8 4.32045 8.07024 4.19543 8.19526C4.0704 8.32029 4.00016 8.48986 4.00016 8.66667C4.00016 8.84348 4.0704 9.01305 4.19543 9.13807C4.32045 9.2631 4.49002 9.33333 4.66683 9.33333ZM4.66683 12C4.84364 12 5.01321 11.9298 5.13823 11.8047C5.26326 11.6797 5.3335 11.5101 5.3335 11.3333C5.3335 11.1565 5.26326 10.987 5.13823 10.8619C5.01321 10.7369 4.84364 10.6667 4.66683 10.6667C4.49002 10.6667 4.32045 10.7369 4.19543 10.8619C4.0704 10.987 4.00016 11.1565 4.00016 11.3333C4.00016 11.5101 4.0704 11.6797 4.19543 11.8047C4.32045 11.9298 4.49002 12 4.66683 12Z" fill="black"/>
</svg>
