<svg width="14" height="15" viewBox="0 0 14 15" fill="none" xmlns="http://www.w3.org/2000/svg">
<path d="M9 2.66668V1.33334M9 2.66668V4.00001M9 2.66668H6M1 6.66668V12.6667C1 13.0203 1.14048 13.3594 1.39052 13.6095C1.64057 13.8595 1.97971 14 2.33333 14H11.6667C12.0203 14 12.3594 13.8595 12.6095 13.6095C12.8595 13.3594 13 13.0203 13 12.6667V6.66668M1 6.66668H13M1 6.66668V4.00001C1 3.64639 1.14048 3.30725 1.39052 3.0572C1.64057 2.80715 1.97971 2.66668 2.33333 2.66668H3.66667M13 6.66668V4.00001C13 3.64639 12.8595 3.30725 12.6095 3.0572C12.3594 2.80715 12.0203 2.66668 11.6667 2.66668H11.3333M3.66667 1.33334V4.00001" stroke="#4A5974" stroke-linecap="round" stroke-linejoin="round"/>
</svg>
