<svg width="12" height="13" viewBox="0 0 12 13" fill="none" xmlns="http://www.w3.org/2000/svg">
<path fill-rule="evenodd" clip-rule="evenodd" d="M3.79428 0.646432C3.87006 0.735873 3.91052 0.854844 3.90675 0.977173C3.90298 1.0995 3.8553 1.21517 3.77418 1.29874L1.38201 3.76028C1.34002 3.80355 1.2904 3.83682 1.23624 3.85802C1.18208 3.87922 1.12454 3.8879 1.0672 3.88351C1.00987 3.87912 0.953964 3.86176 0.902979 3.83252C0.851994 3.80327 0.807017 3.76276 0.770851 3.71351L0.0932732 2.79043C0.0586778 2.74332 0.0328376 2.68915 0.0172281 2.63103C0.00161855 2.5729 -0.00345463 2.51196 0.00229825 2.45167C0.0139167 2.32991 0.0689266 2.21824 0.155226 2.1412C0.241526 2.06417 0.352047 2.02808 0.462474 2.04089C0.572902 2.0537 0.674192 2.11436 0.74406 2.20951C0.950802 2.49122 1.36115 2.51956 1.60465 2.26894L3.20265 0.624278C3.28377 0.54072 3.39168 0.496112 3.50263 0.500266C3.61358 0.504421 3.71848 0.556998 3.79428 0.646432ZM5.58143 2.19228C5.58143 2.06987 5.62553 1.95248 5.70404 1.86592C5.78254 1.77937 5.88901 1.73074 6.00003 1.73074H11.5814C11.6924 1.73074 11.7989 1.77937 11.8774 1.86592C11.9559 1.95248 12 2.06987 12 2.19228C12 2.31469 11.9559 2.43208 11.8774 2.51863C11.7989 2.60519 11.6924 2.65382 11.5814 2.65382H6.00003C5.88901 2.65382 5.78254 2.60519 5.70404 2.51863C5.62553 2.43208 5.58143 2.31469 5.58143 2.19228ZM3.79428 4.95412C3.87006 5.04356 3.91052 5.16254 3.90675 5.28486C3.90298 5.40719 3.8553 5.52286 3.77418 5.60643L1.38201 8.06797C1.34002 8.11124 1.2904 8.14451 1.23624 8.16571C1.18208 8.18691 1.12454 8.19559 1.0672 8.1912C1.00987 8.18681 0.953964 8.16946 0.902979 8.14021C0.851994 8.11096 0.807017 8.07045 0.770851 8.0212L0.0932732 7.09812C0.0586777 7.05101 0.0328375 6.99684 0.017228 6.93872C0.00161848 6.88059 -0.00345463 6.81965 0.00229825 6.75936C0.00805113 6.69907 0.0245174 6.64063 0.0507568 6.58736C0.0769963 6.53409 0.112495 6.48704 0.155226 6.44889C0.197958 6.41075 0.247085 6.38226 0.299802 6.36505C0.35252 6.34784 0.407796 6.34224 0.462474 6.34859C0.517153 6.35493 0.570162 6.37308 0.618477 6.40201C0.666792 6.43095 0.709465 6.47009 0.74406 6.5172C0.950802 6.79891 1.36115 6.82725 1.60465 6.57664L3.20265 4.93197C3.28377 4.84841 3.39168 4.8038 3.50263 4.80796C3.61358 4.81211 3.71848 4.86469 3.79428 4.95412ZM5.58143 6.49997C5.58143 6.37756 5.62553 6.26017 5.70404 6.17361C5.78254 6.08706 5.88901 6.03843 6.00003 6.03843H11.5814C11.6924 6.03843 11.7989 6.08706 11.8774 6.17361C11.9559 6.26017 12 6.37756 12 6.49997C12 6.62238 11.9559 6.73977 11.8774 6.82633C11.7989 6.91288 11.6924 6.96151 11.5814 6.96151H6.00003C5.88901 6.96151 5.78254 6.91288 5.70404 6.82633C5.62553 6.73977 5.58143 6.62238 5.58143 6.49997ZM3.79428 9.26182C3.87006 9.35126 3.91052 9.47023 3.90675 9.59256C3.90298 9.71489 3.8553 9.83056 3.77418 9.91412L1.38201 12.3757C1.34002 12.4189 1.2904 12.4522 1.23624 12.4734C1.18208 12.4946 1.12454 12.5033 1.0672 12.4989C1.00987 12.4945 0.953964 12.4771 0.902979 12.4479C0.851994 12.4187 0.807017 12.3781 0.770851 12.3289L0.0932732 11.4058C0.0586777 11.3587 0.0328375 11.3045 0.017228 11.2464C0.00161848 11.1883 -0.00345463 11.1273 0.00229825 11.0671C0.00805113 11.0068 0.0245174 10.9483 0.0507568 10.895C0.0769963 10.8418 0.112495 10.7947 0.155226 10.7566C0.197958 10.7184 0.247085 10.6899 0.299802 10.6727C0.35252 10.6555 0.407796 10.6499 0.462474 10.6563C0.517153 10.6626 0.570162 10.6808 0.618477 10.7097C0.666792 10.7386 0.709465 10.7778 0.74406 10.8249C0.950802 11.1066 1.36115 11.1349 1.60465 10.8843L3.20265 9.23966C3.28377 9.1561 3.39168 9.11149 3.50263 9.11565C3.61358 9.1198 3.71848 9.17238 3.79428 9.26182ZM5.58143 10.8077C5.58143 10.6853 5.62553 10.5679 5.70404 10.4813C5.78254 10.3947 5.88901 10.3461 6.00003 10.3461H11.5814C11.6924 10.3461 11.7989 10.3947 11.8774 10.4813C11.9559 10.5679 12 10.6853 12 10.8077C12 10.9301 11.9559 11.0475 11.8774 11.134C11.7989 11.2206 11.6924 11.2692 11.5814 11.2692H6.00003C5.88901 11.2692 5.78254 11.2206 5.70404 11.134C5.62553 11.0475 5.58143 10.9301 5.58143 10.8077Z" fill="#4A5974"/>
</svg>
