<svg width="14" height="14" viewBox="0 0 14 14" fill="none" xmlns="http://www.w3.org/2000/svg">
<path d="M8.375 5.4375C8.375 5.32147 8.32891 5.21019 8.24686 5.12814C8.16481 5.04609 8.05353 5 7.9375 5C7.82147 5 7.71019 5.04609 7.62814 5.12814C7.54609 5.21019 7.5 5.32147 7.5 5.4375V8.35417C7.49997 8.42834 7.5188 8.50131 7.55472 8.56621C7.59063 8.6311 7.64246 8.68581 7.70533 8.72517L9.45533 9.81892C9.55373 9.88049 9.67255 9.90046 9.78567 9.87442C9.84168 9.86153 9.8946 9.83773 9.94141 9.80439C9.98822 9.77104 10.028 9.72881 10.0585 9.68008C10.089 9.63136 10.1096 9.57712 10.1191 9.52044C10.1286 9.46376 10.1269 9.40576 10.114 9.34975C10.1011 9.29374 10.0773 9.24082 10.044 9.194C10.0106 9.14719 9.96839 9.10741 9.91967 9.07692L8.375 8.1115V5.4375Z" fill="#4A5974"/>
<path fill-rule="evenodd" clip-rule="evenodd" d="M7.896 1.89584C6.3047 1.89584 4.77857 2.52798 3.65336 3.6532C2.52814 4.77841 1.896 6.30454 1.896 7.89584C1.896 9.48713 2.52814 11.0133 3.65336 12.1385C4.77857 13.2637 6.3047 13.8958 7.896 13.8958C9.4873 13.8958 11.0134 13.2637 12.1386 12.1385C13.2639 11.0133 13.896 9.48713 13.896 7.89584C13.896 6.30454 13.2639 4.77841 12.1386 3.6532C11.0134 2.52798 9.4873 1.89584 7.896 1.89584ZM2.92457 7.89584C2.92457 7.24298 3.05316 6.59651 3.30299 5.99335C3.55283 5.39019 3.91903 4.84214 4.38067 4.3805C4.84231 3.91886 5.39035 3.55267 5.99351 3.30283C6.59667 3.053 7.24314 2.92441 7.896 2.92441C8.54885 2.92441 9.19532 3.053 9.79848 3.30283C10.4016 3.55267 10.9497 3.91886 11.4113 4.3805C11.873 4.84214 12.2392 5.39019 12.489 5.99335C12.7388 6.59651 12.8674 7.24298 12.8674 7.89584C12.8674 9.21434 12.3437 10.4788 11.4113 11.4112C10.479 12.3435 9.2145 12.8673 7.896 12.8673C6.57749 12.8673 5.31299 12.3435 4.38067 11.4112C3.44834 10.4788 2.92457 9.21434 2.92457 7.89584Z" fill="#4A5974"/>
</svg>
