<svg width="20" height="20" viewBox="0 0 20 20" fill="none" xmlns="http://www.w3.org/2000/svg">
<path d="M3.5 0.5H16.5C17.2956 0.5 18.0587 0.816071 18.6213 1.37868C19.1839 1.94129 19.5 2.70435 19.5 3.5V12.5C19.5 13.2956 19.1839 14.0587 18.6213 14.6213C18.0587 15.1839 17.2956 15.5 16.5 15.5H11.91L8.21 19.21C8.03 19.39 7.78 19.5 7.5 19.5C7.23478 19.5 6.98043 19.3946 6.79289 19.2071C6.60536 19.0196 6.5 18.7652 6.5 18.5V15.5H3.5C2.70435 15.5 1.94129 15.1839 1.37868 14.6213C0.816071 14.0587 0.5 13.2956 0.5 12.5V3.5C0.5 2.70435 0.816071 1.94129 1.37868 1.37868C1.94129 0.816071 2.70435 0.5 3.5 0.5ZM16.5 1.5H3.5C2.96957 1.5 2.46086 1.71071 2.08579 2.08579C1.71071 2.46086 1.5 2.96957 1.5 3.5V12.5C1.5 13.0304 1.71071 13.5391 2.08579 13.9142C2.46086 14.2893 2.96957 14.5 3.5 14.5H7.5V18.5L11.5 14.5H16.5C17.0304 14.5 17.5391 14.2893 17.9142 13.9142C18.2893 13.5391 18.5 13.0304 18.5 12.5V3.5C18.5 2.96957 18.2893 2.46086 17.9142 2.08579C17.5391 1.71071 17.0304 1.5 16.5 1.5Z" fill="#4A5974"/>
</svg>
