<svg width="12" height="16" viewBox="0 0 12 16" fill="none" xmlns="http://www.w3.org/2000/svg">
<path d="M3.33301 2.66665V10.6666C3.33301 11.0203 3.47348 11.3594 3.72353 11.6095C3.97358 11.8595 4.31272 12 4.66634 12H9.99967C10.3533 12 10.6924 11.8595 10.9425 11.6095C11.1925 11.3594 11.333 11.0203 11.333 10.6666V4.82798C11.333 4.65035 11.2975 4.47452 11.2286 4.31081C11.1596 4.1471 11.0587 3.99881 10.9317 3.87465L8.72167 1.71331C8.47258 1.46975 8.13806 1.33336 7.78967 1.33331H4.66634C4.31272 1.33331 3.97358 1.47379 3.72353 1.72384C3.47348 1.97389 3.33301 2.31302 3.33301 2.66665Z" stroke="#4285F4" stroke-linecap="round" stroke-linejoin="round"/>
<path d="M8.6665 12V13.3333C8.6665 13.6869 8.52603 14.0261 8.27598 14.2761C8.02593 14.5261 7.68679 14.6666 7.33317 14.6666H1.99984C1.64622 14.6666 1.30708 14.5261 1.05703 14.2761C0.80698 14.0261 0.666504 13.6869 0.666504 13.3333V5.99996C0.666504 5.64634 0.80698 5.3072 1.05703 5.05715C1.30708 4.8071 1.64622 4.66663 1.99984 4.66663H3.33317" stroke="#4285F4" stroke-linecap="round" stroke-linejoin="round"/>
</svg>
