<svg width="13" height="15" viewBox="0 0 13 15" fill="none" xmlns="http://www.w3.org/2000/svg">
<path d="M4.6665 12.3333H1.99984V1.66665H6.6665V4.99998H9.99984V7.06665L11.3332 5.73331V4.33331L7.33317 0.333313H1.99984C1.2665 0.333313 0.666504 0.933313 0.666504 1.66665V12.3333C0.666504 13.0666 1.2665 13.6666 1.99984 13.6666H4.6665V12.3333ZM11.4665 7.66665C11.5332 7.66665 11.6665 7.73331 11.7332 7.79998L12.5998 8.66665C12.7332 8.79998 12.7332 9.06665 12.5998 9.19998L11.9332 9.86665L10.5332 8.46665L11.1998 7.79998C11.2665 7.73331 11.3332 7.66665 11.4665 7.66665ZM11.4665 10.2666L7.39984 14.3333H5.99984V12.9333L10.0665 8.86665L11.4665 10.2666Z" fill="black"/>
</svg>
