<svg width="15" height="14" viewBox="0 0 15 14" fill="none" xmlns="http://www.w3.org/2000/svg">
<path d="M1.375 0.875C1.85898 0.875 2.25 1.26602 2.25 1.75V10.9375C2.25 11.1781 2.44687 11.375 2.6875 11.375H13.625C14.109 11.375 14.5 11.766 14.5 12.25C14.5 12.734 14.109 13.125 13.625 13.125H2.6875C1.47891 13.125 0.5 12.1461 0.5 10.9375V1.75C0.5 1.26602 0.891016 0.875 1.375 0.875ZM4 3.5C4 3.01602 4.39102 2.625 4.875 2.625H7.5C7.98398 2.625 8.375 3.01602 8.375 3.5C8.375 3.98398 7.98398 4.375 7.5 4.375H4.875C4.39102 4.375 4 3.98398 4 3.5ZM6.625 5.25H10.125C10.609 5.25 11 5.64102 11 6.125C11 6.60898 10.609 7 10.125 7H6.625C6.14102 7 5.75 6.60898 5.75 6.125C5.75 5.64102 6.14102 5.25 6.625 5.25ZM11 7.875H12.75C13.234 7.875 13.625 8.26602 13.625 8.75C13.625 9.23398 13.234 9.625 12.75 9.625H11C10.516 9.625 10.125 9.23398 10.125 8.75C10.125 8.26602 10.516 7.875 11 7.875Z" fill="#4A5974"/>
</svg>
