<svg width="14" height="14" viewBox="0 0 14 14" fill="none" xmlns="http://www.w3.org/2000/svg">
<path d="M6.09834 0.258991C6.30421 0.0917694 6.56523 0 6.835 0C7.10477 0 7.36579 0.0917694 7.57166 0.258991L13.2675 4.8942C13.3936 4.99677 13.495 5.12444 13.5645 5.26835C13.634 5.41226 13.67 5.56896 13.67 5.72757V12.5773C13.67 12.8671 13.55 13.145 13.3363 13.35C13.1227 13.5549 12.833 13.67 12.5308 13.67H8.16403C8.01296 13.67 7.86809 13.6124 7.76127 13.51C7.65445 13.4075 7.59444 13.2686 7.59444 13.1237V8.57076H6.07556V13.1237C6.07556 13.2686 6.01555 13.4075 5.90873 13.51C5.80191 13.6124 5.65704 13.67 5.50597 13.67H1.13917C0.837041 13.67 0.547289 13.5549 0.333654 13.35C0.120019 13.145 0 12.8671 0 12.5773V5.72757C0 5.40704 0.147332 5.10181 0.402506 4.8942L6.09834 0.258991ZM6.835 1.09235L1.13917 5.72757V12.5773H4.93639V8.02441C4.93639 7.87951 4.9964 7.74054 5.10322 7.63808C5.21003 7.53562 5.35491 7.47806 5.50597 7.47806H8.16403C8.31509 7.47806 8.45997 7.53562 8.56678 7.63808C8.6736 7.74054 8.73361 7.87951 8.73361 8.02441V12.5773H12.5308V5.72757L6.835 1.09235Z" fill="#4A5974"/>
</svg>
