<svg width="15" height="14" viewBox="0 0 15 14" fill="none" xmlns="http://www.w3.org/2000/svg">
<path d="M3.90541 0.466667H14.5V2.33333H3.90541V0.466667ZM3.90541 7.93333V6.06667H14.5V7.93333H3.90541ZM1.63514 0C1.93619 0 2.22492 0.147499 2.4378 0.41005C2.65068 0.672601 2.77027 1.0287 2.77027 1.4C2.77027 1.7713 2.65068 2.1274 2.4378 2.38995C2.22492 2.6525 1.93619 2.8 1.63514 2.8C1.33408 2.8 1.04535 2.6525 0.832473 2.38995C0.619594 2.1274 0.5 1.7713 0.5 1.4C0.5 1.0287 0.619594 0.672601 0.832473 0.41005C1.04535 0.147499 1.33408 0 1.63514 0ZM1.63514 5.6C1.93619 5.6 2.22492 5.7475 2.4378 6.01005C2.65068 6.2726 2.77027 6.6287 2.77027 7C2.77027 7.3713 2.65068 7.7274 2.4378 7.98995C2.22492 8.2525 1.93619 8.4 1.63514 8.4C1.33408 8.4 1.04535 8.2525 0.832473 7.98995C0.619594 7.7274 0.5 7.3713 0.5 7C0.5 6.6287 0.619594 6.2726 0.832473 6.01005C1.04535 5.7475 1.33408 5.6 1.63514 5.6ZM3.90541 13.5333V11.6667H14.5V13.5333H3.90541ZM1.63514 11.2C1.93619 11.2 2.22492 11.3475 2.4378 11.6101C2.65068 11.8726 2.77027 12.2287 2.77027 12.6C2.77027 12.9713 2.65068 13.3274 2.4378 13.5899C2.22492 13.8525 1.93619 14 1.63514 14C1.33408 14 1.04535 13.8525 0.832473 13.5899C0.619594 13.3274 0.5 12.9713 0.5 12.6C0.5 12.2287 0.619594 11.8726 0.832473 11.6101C1.04535 11.3475 1.33408 11.2 1.63514 11.2Z" fill="#083AA9"/>
</svg>
