<svg width="24" height="24" viewBox="0 0 24 24" fill="none" xmlns="http://www.w3.org/2000/svg">
<g clip-path="url(#clip0_456_54465)">
<path d="M6.33333 0C5.44928 0 4.60143 0.316071 3.97631 0.87868C3.35119 1.44129 3 2.20435 3 3V21C3 21.7956 3.35119 22.5587 3.97631 23.1213C4.60143 23.6839 5.44928 24 6.33333 24H19.6667C20.5507 24 21.3986 23.6839 22.0237 23.1213C22.6488 22.5587 23 21.7956 23 21V3C23 2.20435 22.6488 1.44129 22.0237 0.87868C21.3986 0.316071 20.5507 0 19.6667 0L6.33333 0ZM6.33333 1.5H19.6667C20.1087 1.5 20.5326 1.65804 20.8452 1.93934C21.1577 2.22064 21.3333 2.60218 21.3333 3V21C21.3333 21.3978 21.1577 21.7794 20.8452 22.0607C20.5326 22.342 20.1087 22.5 19.6667 22.5H6.33333C5.89131 22.5 5.46738 22.342 5.15482 22.0607C4.84226 21.7794 4.66667 21.3978 4.66667 21V3C4.66667 2.60218 4.84226 2.22064 5.15482 1.93934C5.46738 1.65804 5.89131 1.5 6.33333 1.5Z" fill="#F71F13"/>
<path d="M7.3385 18.1305C7.01365 18.0136 6.75193 17.7877 6.6085 17.5005C6.2835 16.9185 6.39183 16.3365 6.74183 15.8475C7.07183 15.387 7.6185 14.9955 8.23683 14.667C9.02006 14.2672 9.84798 13.9429 10.7068 13.6995C11.3738 12.6204 11.965 11.5047 12.4768 10.359C12.1708 9.73314 11.9309 9.08278 11.7602 8.41648C11.6168 7.81648 11.5618 7.22248 11.6835 6.71248C11.8085 6.18148 12.1402 5.70448 12.7668 5.47798C13.0868 5.36248 13.4335 5.29798 13.7702 5.36248C13.9395 5.39493 14.0987 5.4609 14.2362 5.55559C14.3737 5.65029 14.4861 5.77135 14.5652 5.90998C14.7118 6.15598 14.7652 6.44398 14.7768 6.71698C14.7885 6.99748 14.7568 7.30948 14.6985 7.63798C14.5585 8.40298 14.2485 9.33898 13.8318 10.329C14.2917 11.214 14.8383 12.0604 15.4652 12.858C16.207 12.8053 16.9531 12.8304 17.6885 12.933C18.2952 13.0305 18.9118 13.2255 19.2885 13.6305C19.4885 13.8465 19.6102 14.1105 19.6218 14.4075C19.6335 14.6955 19.5435 14.9805 19.3918 15.252C19.2605 15.5036 19.0568 15.719 18.8018 15.876C18.5498 16.0239 18.2523 16.0964 17.9518 16.083C17.4002 16.062 16.8618 15.789 16.3968 15.4575C15.8314 15.0367 15.322 14.5585 14.8785 14.0325C13.7514 14.1475 12.6377 14.3513 11.5502 14.6415C11.0516 15.4365 10.4825 16.1939 9.8485 16.9065C9.36517 17.4315 8.83517 17.889 8.30517 18.087C8.00065 18.211 7.65524 18.2265 7.3385 18.1305ZM9.63683 15.279C9.36017 15.393 9.1035 15.513 8.87183 15.636C8.32517 15.927 7.97017 16.2105 7.7935 16.4565C7.63683 16.674 7.6335 16.8315 7.72683 16.998C7.7435 17.031 7.76017 17.052 7.77017 17.064C7.79005 17.0592 7.80954 17.0532 7.8285 17.046C8.05683 16.962 8.42017 16.6935 8.88683 16.188C9.15224 15.8955 9.40251 15.5922 9.63683 15.279ZM12.3702 13.284C12.9267 13.167 13.4883 13.0704 14.0535 12.9945C13.7499 12.5766 13.4663 12.1472 13.2035 11.7075C12.9421 12.2394 12.6642 12.7646 12.3702 13.2825V13.284ZM16.4468 13.959C16.6968 14.202 16.9402 14.409 17.1718 14.574C17.5718 14.859 17.8502 14.9535 18.0018 14.958C18.0424 14.9628 18.0836 14.9548 18.1185 14.9355C18.1878 14.8862 18.2418 14.8216 18.2752 14.748C18.3344 14.6566 18.3682 14.5537 18.3735 14.448C18.3725 14.4127 18.3571 14.3791 18.3302 14.3535C18.2435 14.2605 17.9968 14.1255 17.4668 14.04C17.1297 13.9893 16.7886 13.9627 16.4468 13.9605V13.959ZM13.1302 8.69998C13.2704 8.29277 13.3818 7.87793 13.4635 7.45798C13.5152 7.17598 13.5352 6.94348 13.5268 6.76048C13.5273 6.65952 13.5093 6.55918 13.4735 6.46348C13.3901 6.47277 13.3087 6.49299 13.2318 6.52348C13.0868 6.57598 12.9685 6.68248 12.9052 6.94798C12.8385 7.23598 12.8552 7.65148 12.9818 8.18098C13.0218 8.34748 13.0718 8.52148 13.1318 8.69998H13.1302Z" fill="#F71F13"/>
</g>
<defs>
<clipPath id="clip0_456_54465">
<rect width="24" height="24" fill="white"/>
</clipPath>
</defs>
</svg>
