<svg width="16" height="16" viewBox="0 0 16 16" fill="none" xmlns="http://www.w3.org/2000/svg">
<path d="M12 8.66536H8.66665V11.9987C8.66665 12.1755 8.59641 12.3451 8.47138 12.4701C8.34636 12.5951 8.17679 12.6654 7.99998 12.6654C7.82317 12.6654 7.6536 12.5951 7.52858 12.4701C7.40355 12.3451 7.33331 12.1755 7.33331 11.9987V8.66536H3.99998C3.82317 8.66536 3.6536 8.59513 3.52858 8.4701C3.40355 8.34508 3.33331 8.17551 3.33331 7.9987C3.33331 7.82189 3.40355 7.65232 3.52858 7.52729C3.6536 7.40227 3.82317 7.33203 3.99998 7.33203H7.33331V3.9987C7.33331 3.82189 7.40355 3.65232 7.52858 3.52729C7.6536 3.40227 7.82317 3.33203 7.99998 3.33203C8.17679 3.33203 8.34636 3.40227 8.47138 3.52729C8.59641 3.65232 8.66665 3.82189 8.66665 3.9987V7.33203H12C12.1768 7.33203 12.3464 7.40227 12.4714 7.52729C12.5964 7.65232 12.6666 7.82189 12.6666 7.9987C12.6666 8.17551 12.5964 8.34508 12.4714 8.4701C12.3464 8.59513 12.1768 8.66536 12 8.66536Z" fill="black"/>
</svg>
