<svg width="16" height="16" viewBox="0 0 16 16" fill="none" xmlns="http://www.w3.org/2000/svg">
<path d="M12.0208 11.078L14.8762 13.9327L13.9328 14.876L11.0782 12.0207C10.016 12.8722 8.69483 13.3353 7.3335 13.3333C4.0215 13.3333 1.3335 10.6453 1.3335 7.33334C1.3335 4.02134 4.0215 1.33334 7.3335 1.33334C10.6455 1.33334 13.3335 4.02134 13.3335 7.33334C13.3354 8.69468 12.8723 10.0158 12.0208 11.078ZM10.6835 10.5833C11.5296 9.71327 12.0021 8.54696 12.0002 7.33334C12.0002 4.75534 9.9115 2.66668 7.3335 2.66668C4.7555 2.66668 2.66683 4.75534 2.66683 7.33334C2.66683 9.91134 4.7555 12 7.3335 12C8.54712 12.0019 9.71342 11.5294 10.5835 10.6833L10.6835 10.5833Z" fill="black"/>
</svg>
