<svg width="14" height="16" viewBox="0 0 14 16" fill="none" xmlns="http://www.w3.org/2000/svg">
<path d="M13.0048 5.48133C13.007 5.01887 12.8804 4.56492 12.6393 4.17029C12.3982 3.77566 12.052 3.45591 11.6395 3.24682C11.227 3.03773 10.7644 2.94755 10.3036 2.98638C9.84276 3.02521 9.40182 3.19151 9.03012 3.46667C8.65854 3.74208 8.37097 4.11549 8.1996 4.54509C8.02823 4.97468 7.97984 5.44351 8.05983 5.89905C8.13983 6.3546 8.34506 6.77888 8.65253 7.12439C8.96001 7.4699 9.3576 7.72299 9.80078 7.85533C9.63727 8.18803 9.38416 8.4685 9.06993 8.66519C8.7557 8.86187 8.39282 8.96698 8.02212 8.96867H6.02878C5.29117 8.97119 4.58088 9.24803 4.03612 9.74533V4.93333C4.64107 4.80992 5.17865 4.46626 5.54461 3.969C5.91058 3.47174 6.07887 2.8563 6.01685 2.24201C5.95483 1.62772 5.66691 1.05834 5.20893 0.644275C4.75095 0.230206 4.15553 0.000946045 3.53812 0.000946045C2.9207 0.000946045 2.32528 0.230206 1.8673 0.644275C1.40932 1.05834 1.12141 1.62772 1.05939 2.24201C0.997364 2.8563 1.16565 3.47174 1.53162 3.969C1.89759 4.46626 2.43516 4.80992 3.04012 4.93333V11.0113C2.43628 11.1267 1.89553 11.459 1.51985 11.9456C1.14417 12.4322 0.959546 13.0395 1.00079 13.6529C1.04204 14.2662 1.30631 14.8433 1.74375 15.2752C2.1812 15.7072 2.76158 15.9641 3.37542 15.9976C3.98927 16.031 4.59414 15.8387 5.07595 15.4569C5.55775 15.0751 5.88319 14.5301 5.99087 13.9249C6.09855 13.3196 5.98103 12.6959 5.66048 12.1713C5.33993 11.6468 4.8385 11.2576 4.25078 11.0773C4.4147 10.7451 4.66796 10.4651 4.98214 10.2688C5.29632 10.0725 5.65899 9.96766 6.02945 9.966H8.02278C8.64446 9.96298 9.24973 9.7662 9.75434 9.40307C10.2589 9.03994 10.6378 8.52852 10.8381 7.94C11.4355 7.86163 11.9842 7.5694 12.3826 7.11745C12.7809 6.6655 13.002 6.0838 13.0048 5.48133ZM2.04345 2.492C2.04345 2.29572 2.08211 2.10136 2.15723 1.92001C2.23234 1.73867 2.34244 1.5739 2.48123 1.43511C2.62002 1.29632 2.78479 1.18622 2.96613 1.11111C3.14747 1.03599 3.34184 0.997332 3.53812 0.997332C3.7344 0.997332 3.92876 1.03599 4.1101 1.11111C4.29144 1.18622 4.45621 1.29632 4.59501 1.43511C4.7338 1.5739 4.8439 1.73867 4.91901 1.92001C4.99412 2.10136 5.03278 2.29572 5.03278 2.492C5.03278 2.88841 4.87531 3.26858 4.59501 3.54889C4.3147 3.82919 3.93453 3.98667 3.53812 3.98667C3.14171 3.98667 2.76153 3.82919 2.48123 3.54889C2.20092 3.26858 2.04345 2.88841 2.04345 2.492ZM5.03278 13.4527C5.03278 13.6489 4.99412 13.8433 4.91901 14.0246C4.8439 14.206 4.7338 14.3708 4.59501 14.5096C4.45621 14.6483 4.29144 14.7584 4.1101 14.8336C3.92876 14.9087 3.7344 14.9473 3.53812 14.9473C3.34184 14.9473 3.14747 14.9087 2.96613 14.8336C2.78479 14.7584 2.62002 14.6483 2.48123 14.5096C2.34244 14.3708 2.23234 14.206 2.15723 14.0246C2.08211 13.8433 2.04345 13.6489 2.04345 13.4527C2.04345 13.0563 2.20092 12.6761 2.48123 12.3958C2.76153 12.1155 3.14171 11.958 3.53812 11.958C3.93453 11.958 4.3147 12.1155 4.59501 12.3958C4.87531 12.6761 5.03278 13.0563 5.03278 13.4527ZM10.5135 6.976C10.117 6.976 9.73669 6.81849 9.45633 6.53812C9.17596 6.25776 9.01845 5.8775 9.01845 5.481C9.01845 5.0845 9.17596 4.70424 9.45633 4.42387C9.73669 4.14351 10.117 3.986 10.5135 3.986C10.9099 3.986 11.2902 4.14351 11.5706 4.42387C11.8509 4.70424 12.0085 5.0845 12.0085 5.481C12.0085 5.8775 11.8509 6.25776 11.5706 6.53812C11.2902 6.81849 10.9099 6.976 10.5135 6.976Z" fill="#4A5974"/>
</svg>
