<svg width="16" height="16" viewBox="0 0 16 16" fill="none" xmlns="http://www.w3.org/2000/svg">
<g clip-path="url(#clip0_858_54318)">
<path fill-rule="evenodd" clip-rule="evenodd" d="M7.02458 1.44268C7.29374 1.41819 7.56508 1.44851 7.82221 1.53181C8.07933 1.61511 8.3169 1.74966 8.52058 1.92734L8.62058 2.02068L13.8352 7.23601C14.1941 7.59496 14.4031 8.07693 14.4198 8.58424C14.4365 9.09154 14.2597 9.58622 13.9252 9.96801L13.8352 10.064L10.0639 13.8353C9.70496 14.1942 9.22299 14.4032 8.71568 14.4199C8.20838 14.4366 7.7137 14.2598 7.33191 13.9253L7.23591 13.8353L2.01991 8.62001C1.82889 8.429 1.67855 8.20128 1.57795 7.95058C1.47735 7.69989 1.42858 7.43141 1.43458 7.16134L1.44191 7.02468L1.75658 3.56801C1.79697 3.12253 1.98554 2.70345 2.29214 2.37776C2.59875 2.05206 3.00568 1.83855 3.44791 1.77134L3.56724 1.75734L7.02458 1.44268ZM5.34924 5.35001C5.22541 5.47385 5.12717 5.62086 5.06015 5.78266C4.99313 5.94446 4.95864 6.11788 4.95864 6.29301C4.95864 6.46814 4.99313 6.64156 5.06015 6.80336C5.12717 6.96516 5.22541 7.11217 5.34924 7.23601C5.47308 7.35985 5.62009 7.45808 5.78189 7.5251C5.94369 7.59212 6.11711 7.62661 6.29224 7.62661C6.46737 7.62661 6.64079 7.59212 6.80259 7.5251C6.96439 7.45808 7.11141 7.35985 7.23524 7.23601C7.48534 6.98591 7.62585 6.6467 7.62585 6.29301C7.62585 5.93932 7.48534 5.60011 7.23524 5.35001C6.98514 5.09991 6.64594 4.95941 6.29224 4.95941C5.93855 4.95941 5.59934 5.09991 5.34924 5.35001Z" fill="black"/>
</g>
<defs>
<clipPath id="clip0_858_54318">
<rect width="16" height="16" fill="white"/>
</clipPath>
</defs>
</svg>
