<svg width="16" height="16" viewBox="0 0 16 16" fill="none" xmlns="http://www.w3.org/2000/svg">
<path d="M7.29984 12L11.0665 8.23331L10.0998 7.26665L7.28317 10.0833L5.88317 8.68331L4.93317 9.63331L7.29984 12ZM3.99984 14.6666C3.63317 14.6666 3.31917 14.536 3.05784 14.2746C2.7965 14.0133 2.66606 13.6995 2.66651 13.3333V2.66665C2.66651 2.29998 2.79717 1.98598 3.0585 1.72465C3.31984 1.46331 3.63362 1.33287 3.99984 1.33331H9.33317L13.3332 5.33331V13.3333C13.3332 13.7 13.2025 14.014 12.9412 14.2753C12.6798 14.5366 12.3661 14.6671 11.9998 14.6666H3.99984ZM8.66651 5.99998H11.9998L8.66651 2.66665V5.99998Z" fill="black"/>
</svg>
