<svg width="63" height="62" viewBox="0 0 63 62" fill="none" xmlns="http://www.w3.org/2000/svg">
<g filter="url(#filter0_d_8_1217)">
<path d="M4.5 31C4.5 45.9117 16.5883 58 31.5 58C46.4117 58 58.5 45.9117 58.5 31C58.5 16.0883 46.4117 4 31.5 4C16.5883 4 4.5 16.0883 4.5 31Z" fill="#1DA1F2"/>
<path d="M45 22.5625C43.9875 23.0687 42.975 23.2375 41.7938 23.4062C42.975 22.7313 43.8188 21.7187 44.1562 20.3687C43.1437 21.0437 41.9625 21.3813 40.6125 21.7188C39.6 20.7062 38.0812 20.0312 36.5625 20.0312C33.0188 20.0312 30.3188 23.4062 31.1625 26.7812C26.6062 26.6125 22.5563 24.4188 19.6875 21.0438C18.1688 23.575 19.0125 26.7812 21.375 28.4688C20.5312 28.4688 19.6875 28.1313 18.8438 27.7938C18.8438 30.325 20.7 32.6875 23.2313 33.3625C22.3875 33.5312 21.5438 33.7 20.7 33.5312C21.375 35.725 23.4 37.4125 25.9312 37.4125C23.9062 38.9312 20.8688 39.775 18 39.4375C20.5312 40.9562 23.4 41.9688 26.4375 41.9688C36.7313 41.9688 42.4687 33.3625 42.1312 25.4312C43.3125 24.7562 44.325 23.7438 45 22.5625Z" fill="white"/>
</g>
<defs>
<filter id="filter0_d_8_1217" x="0.5" y="0" width="62" height="62" filterUnits="userSpaceOnUse" color-interpolation-filters="sRGB">
<feFlood flood-opacity="0" result="BackgroundImageFix"/>
<feColorMatrix in="SourceAlpha" type="matrix" values="0 0 0 0 0 0 0 0 0 0 0 0 0 0 0 0 0 0 127 0" result="hardAlpha"/>
<feOffset/>
<feGaussianBlur stdDeviation="2"/>
<feComposite in2="hardAlpha" operator="out"/>
<feColorMatrix type="matrix" values="0 0 0 0 0 0 0 0 0 0 0 0 0 0 0 0 0 0 0.1 0"/>
<feBlend mode="normal" in2="BackgroundImageFix" result="effect1_dropShadow_8_1217"/>
<feBlend mode="normal" in="SourceGraphic" in2="effect1_dropShadow_8_1217" result="shape"/>
</filter>
</defs>
</svg>
