<svg width="14" height="14" viewBox="0 0 14 14" fill="none" xmlns="http://www.w3.org/2000/svg">
<path fill-rule="evenodd" clip-rule="evenodd" d="M1.44581 6.797C1.44581 9.841 3.65281 11.915 6.13181 12.344C6.19924 12.3557 6.26371 12.3805 6.32154 12.4171C6.37937 12.4538 6.42942 12.5014 6.46884 12.5573C6.50826 12.6133 6.53627 12.6764 6.55128 12.7432C6.56629 12.81 6.568 12.8791 6.55631 12.9465C6.54462 13.0139 6.51977 13.0784 6.48316 13.1362C6.44656 13.1941 6.39892 13.2441 6.34298 13.2835C6.28703 13.323 6.22386 13.351 6.15709 13.366C6.09032 13.381 6.02124 13.3827 5.95381 13.371C3.04281 12.867 0.403809 10.413 0.403809 6.797C0.403809 5.26 1.10281 4.052 1.91881 3.134C2.50381 2.476 3.17281 1.941 3.71081 1.532H2.07481C1.9422 1.532 1.81502 1.47932 1.72126 1.38555C1.62749 1.29178 1.57481 1.16461 1.57481 1.032C1.57481 0.899391 1.62749 0.772214 1.72126 0.678446C1.81502 0.584678 1.9422 0.532 2.07481 0.532H5.07481C5.20742 0.532 5.33459 0.584678 5.42836 0.678446C5.52213 0.772214 5.57481 0.899391 5.57481 1.032V4.032C5.57481 4.16461 5.52213 4.29178 5.42836 4.38555C5.33459 4.47932 5.20742 4.532 5.07481 4.532C4.9422 4.532 4.81502 4.47932 4.72126 4.38555C4.62749 4.29178 4.57481 4.16461 4.57481 4.032V2.186L4.57381 2.188C4.00181 2.618 3.30381 3.145 2.69881 3.826C1.98381 4.63 1.44581 5.603 1.44581 6.797ZM12.5538 7.203C12.5538 4.191 10.3938 2.13 7.94681 1.67C7.87861 1.65843 7.81339 1.63339 7.75497 1.59635C7.69655 1.5593 7.64609 1.511 7.60653 1.45424C7.56698 1.39749 7.53912 1.33343 7.52459 1.2658C7.51006 1.19817 7.50914 1.12832 7.52189 1.06033C7.53463 0.992335 7.5608 0.927564 7.59884 0.86979C7.63689 0.812017 7.68606 0.762399 7.74349 0.723831C7.80091 0.685263 7.86545 0.658517 7.93332 0.645154C8.00119 0.631791 8.07105 0.632079 8.13881 0.646C11.0128 1.186 13.5958 3.626 13.5958 7.203C13.5958 8.74 12.8968 9.947 12.0808 10.866C11.4958 11.524 10.8268 12.059 10.2888 12.468H11.9248C12.0574 12.468 12.1846 12.5207 12.2784 12.6144C12.3721 12.7082 12.4248 12.8354 12.4248 12.968C12.4248 13.1006 12.3721 13.2278 12.2784 13.3216C12.1846 13.4153 12.0574 13.468 11.9248 13.468H8.92481C8.7922 13.468 8.66502 13.4153 8.57125 13.3216C8.47749 13.2278 8.42481 13.1006 8.42481 12.968V9.968C8.42481 9.83539 8.47749 9.70821 8.57125 9.61445C8.66502 9.52068 8.7922 9.468 8.92481 9.468C9.05742 9.468 9.18459 9.52068 9.27836 9.61445C9.37213 9.70821 9.42481 9.83539 9.42481 9.968V11.813H9.42681C9.99781 11.381 10.6968 10.855 11.3008 10.173C12.0158 9.37 12.5538 8.398 12.5538 7.203Z" fill="#4A5974"/>
</svg>
