<svg width="16" height="20" viewBox="0 0 16 20" fill="none" xmlns="http://www.w3.org/2000/svg">
<path d="M8.71 9.29C8.6149 9.19896 8.50275 9.12759 8.38 9.08C8.13654 8.97998 7.86346 8.97998 7.62 9.08C7.49725 9.12759 7.3851 9.19896 7.29 9.29L5.29 11.29C5.1017 11.4783 4.99591 11.7337 4.99591 12C4.99591 12.2663 5.1017 12.5217 5.29 12.71C5.4783 12.8983 5.7337 13.0041 6 13.0041C6.2663 13.0041 6.5217 12.8983 6.71 12.71L7 12.41V15C7 15.2652 7.10536 15.5196 7.29289 15.7071C7.48043 15.8946 7.73478 16 8 16C8.26522 16 8.51957 15.8946 8.70711 15.7071C8.89464 15.5196 9 15.2652 9 15V12.41L9.29 12.71C9.38296 12.8037 9.49356 12.8781 9.61542 12.9289C9.73728 12.9797 9.86799 13.0058 10 13.0058C10.132 13.0058 10.2627 12.9797 10.3846 12.9289C10.5064 12.8781 10.617 12.8037 10.71 12.71C10.8037 12.617 10.8781 12.5064 10.9289 12.3846C10.9797 12.2627 11.0058 12.132 11.0058 12C11.0058 11.868 10.9797 11.7373 10.9289 11.6154C10.8781 11.4936 10.8037 11.383 10.71 11.29L8.71 9.29ZM16 6.94C15.9896 6.84813 15.9695 6.75763 15.94 6.67V6.58C15.8919 6.47718 15.8278 6.38267 15.75 6.3L9.75 0.3C9.66734 0.222216 9.57282 0.158081 9.47 0.11H9.37C9.27276 0.058003 9.16826 0.020922 9.06 0H3C2.20435 0 1.44129 0.316071 0.87868 0.87868C0.316071 1.44129 0 2.20435 0 3V17C0 17.7956 0.316071 18.5587 0.87868 19.1213C1.44129 19.6839 2.20435 20 3 20H13C13.7956 20 14.5587 19.6839 15.1213 19.1213C15.6839 18.5587 16 17.7956 16 17V6.94ZM10 3.41L12.59 6H11C10.7348 6 10.4804 5.89464 10.2929 5.70711C10.1054 5.51957 10 5.26522 10 5V3.41ZM14 17C14 17.2652 13.8946 17.5196 13.7071 17.7071C13.5196 17.8946 13.2652 18 13 18H3C2.73478 18 2.48043 17.8946 2.29289 17.7071C2.10536 17.5196 2 17.2652 2 17V3C2 2.73478 2.10536 2.48043 2.29289 2.29289C2.48043 2.10536 2.73478 2 3 2H8V5C8 5.79565 8.31607 6.55871 8.87868 7.12132C9.44129 7.68393 10.2044 8 11 8H14V17Z" fill="#4A5974" fill-opacity="0.7"/>
</svg>
