<svg width="16" height="16" viewBox="0 0 16 16" fill="none" xmlns="http://www.w3.org/2000/svg">
<path d="M8.00008 2.66663C8.70733 2.66663 9.3856 2.94758 9.8857 3.44767C10.3858 3.94777 10.6667 4.62605 10.6667 5.33329C10.6667 6.04054 10.3858 6.71881 9.8857 7.21891C9.3856 7.71901 8.70733 7.99996 8.00008 7.99996C7.29284 7.99996 6.61456 7.71901 6.11446 7.21891C5.61437 6.71881 5.33341 6.04054 5.33341 5.33329C5.33341 4.62605 5.61437 3.94777 6.11446 3.44767C6.61456 2.94758 7.29284 2.66663 8.00008 2.66663ZM8.00008 13.3333C8.00008 13.3333 13.3334 13.3333 13.3334 12C13.3334 10.4 10.7334 8.66663 8.00008 8.66663C5.26675 8.66663 2.66675 10.4 2.66675 12C2.66675 13.3333 8.00008 13.3333 8.00008 13.3333Z" fill="black"/>
</svg>
