<svg width="24" height="24" viewBox="0 0 24 24" fill="none" xmlns="http://www.w3.org/2000/svg">
<mask id="mask0_235_51344" style="mask-type:luminance" maskUnits="userSpaceOnUse" x="0" y="0" width="24" height="24">
<path d="M0 0H24V24H0V0Z" fill="white"/>
</mask>
<g mask="url(#mask0_235_51344)">
<path d="M23.3687 20.8421C23.3687 21.5121 23.1025 22.1547 22.6287 22.6285C22.155 23.1022 21.5124 23.3684 20.8424 23.3684H3.15815C2.48813 23.3684 1.84555 23.1022 1.37178 22.6285C0.898001 22.1547 0.631836 21.5121 0.631836 20.8421V3.15788C0.631836 2.48786 0.898001 1.84528 1.37178 1.37151C1.84555 0.897732 2.48813 0.631567 3.15815 0.631567H20.8424C21.5124 0.631567 22.155 0.897732 22.6287 1.37151C23.1025 1.84528 23.3687 2.48786 23.3687 3.15788V20.8421Z" fill="#083AA9"/>
<path d="M3.34638 6.84505C3.28765 6.59052 3.26807 6.45347 3.26807 6.17937C3.26807 5.55284 3.7967 4.88653 4.65817 4.88653C5.59796 4.88653 6.04891 5.43537 6.22512 6.29684L7.88933 14.6192H7.92849L10.4744 6.04231C10.6898 5.33747 11.2778 4.88653 12.0022 4.88653C12.7266 4.88653 13.314 5.33747 13.53 6.04231L16.0752 14.6192H16.1138L17.7792 6.29684C17.9542 5.43537 18.4058 4.88653 19.3462 4.88653C20.207 4.88653 20.7363 5.55284 20.7363 6.17937C20.7363 6.45347 20.7161 6.59052 20.6573 6.84505L18.1702 17.5371C17.9744 18.36 17.3276 19.0642 16.2319 19.0642C15.7972 19.0696 15.3727 18.9329 15.0228 18.6749C14.673 18.4169 14.4169 18.0518 14.2935 17.6349L12.0211 10.0762H11.9826L9.7108 17.6349C9.58714 18.0517 9.3309 18.4167 8.98098 18.6747C8.63106 18.9326 8.20654 19.0694 7.77186 19.0642C6.67544 19.0642 6.02933 18.36 5.83354 17.5371L3.34638 6.84505Z" fill="white"/>
</g>
</svg>
